<svg width="170" height="16" viewBox="0 0 170 16" fill="none" xmlns="http://www.w3.org/2000/svg">
<path fill-rule="evenodd" clip-rule="evenodd" d="M13.3424 0.248047L0.951203 12.6393L4.06371 15.7518L16.4549 3.36055L13.3424 0.248047Z" fill="#444561"/>
<path fill-rule="evenodd" clip-rule="evenodd" d="M31.3162 0.248047L18.925 12.6393L22.0375 15.7518L34.4287 3.36055L31.3162 0.248047Z" fill="#444561"/>
<path fill-rule="evenodd" clip-rule="evenodd" d="M9.7547 3.3606L22.1459 15.7518L25.2584 12.6393L12.8672 0.248091L9.7547 3.3606Z" fill="#444561"/>
<path fill-rule="evenodd" clip-rule="evenodd" d="M27.7285 3.3606L40.1197 15.7518L43.2322 12.6393L30.841 0.248091L27.7285 3.3606Z" fill="#444561"/>
<path fill-rule="evenodd" clip-rule="evenodd" d="M49.29 0.248047L36.8988 12.6393L40.0113 15.7518L52.4025 3.36055L49.29 0.248047Z" fill="#444561"/>
<path fill-rule="evenodd" clip-rule="evenodd" d="M45.7023 3.3606L58.0935 15.7518L61.206 12.6393L48.8148 0.248091L45.7023 3.3606Z" fill="#444561"/>
<path fill-rule="evenodd" clip-rule="evenodd" d="M67.2638 0.248047L54.8726 12.6393L57.9851 15.7518L70.3763 3.36055L67.2638 0.248047Z" fill="#444561"/>
<path fill-rule="evenodd" clip-rule="evenodd" d="M63.6761 3.3606L76.0673 15.7518L79.1798 12.6393L66.7886 0.248091L63.6761 3.3606Z" fill="#444561"/>
<path fill-rule="evenodd" clip-rule="evenodd" d="M85.2376 0.248047L72.8464 12.6393L75.9589 15.7518L88.3501 3.36055L85.2376 0.248047Z" fill="#444561"/>
<path fill-rule="evenodd" clip-rule="evenodd" d="M81.6499 3.3606L94.0411 15.7518L97.1536 12.6393L84.7624 0.248091L81.6499 3.3606Z" fill="#444561"/>
<path fill-rule="evenodd" clip-rule="evenodd" d="M103.211 0.248047L90.8202 12.6393L93.9327 15.7518L106.324 3.36055L103.211 0.248047Z" fill="#444561"/>
<path fill-rule="evenodd" clip-rule="evenodd" d="M99.6237 3.3606L112.015 15.7518L115.127 12.6393L102.736 0.248091L99.6237 3.3606Z" fill="#444561"/>
<path fill-rule="evenodd" clip-rule="evenodd" d="M121.185 0.248047L108.794 12.6393L111.906 15.7518L124.298 3.36055L121.185 0.248047Z" fill="#444561"/>
<path fill-rule="evenodd" clip-rule="evenodd" d="M117.597 3.3606L129.989 15.7518L133.101 12.6393L120.71 0.248091L117.597 3.3606Z" fill="#444561"/>
<path fill-rule="evenodd" clip-rule="evenodd" d="M139.159 0.248047L126.768 12.6393L129.88 15.7518L142.272 3.36055L139.159 0.248047Z" fill="#444561"/>
<path fill-rule="evenodd" clip-rule="evenodd" d="M135.571 3.3606L147.962 15.7518L151.075 12.6393L138.684 0.248091L135.571 3.3606Z" fill="#444561"/>
<path fill-rule="evenodd" clip-rule="evenodd" d="M157.133 0.248047L144.742 12.6393L147.854 15.7518L160.245 3.36055L157.133 0.248047Z" fill="#444561"/>
<path fill-rule="evenodd" clip-rule="evenodd" d="M153.545 3.3606L165.936 15.7518L169.049 12.6393L156.658 0.248091L153.545 3.3606Z" fill="#444561"/>
</svg>
