<svg width="36" height="36" viewBox="0 0 36 36" fill="none" xmlns="http://www.w3.org/2000/svg">
<g opacity="0.8">
<path fill-rule="evenodd" clip-rule="evenodd" d="M18 36C27.9411 36 36 27.9411 36 18C36 8.05887 27.9411 0 18 0C8.05887 0 0 8.05887 0 18C0 27.9411 8.05887 36 18 36Z" fill="#4DAFF1"/>
<path fill-rule="evenodd" clip-rule="evenodd" d="M18.7299 14.8761L17.9351 14.7755C15.042 14.3897 12.5145 13.0816 10.3685 10.8845L9.31939 9.79434L9.04915 10.5994C8.47689 12.3939 8.8425 14.2891 10.0347 15.5637C10.6706 16.2681 10.5275 16.3688 9.43066 15.9495C9.04915 15.8153 8.71533 15.7147 8.68354 15.765C8.57226 15.8824 8.95377 17.4086 9.2558 18.0124C9.6691 18.8509 10.5116 19.6728 11.4336 20.1591L12.2125 20.5449L11.2905 20.5616C10.4003 20.5616 10.3685 20.5784 10.4639 20.9306C10.7818 22.0208 12.0376 23.178 13.4365 23.6811L14.4221 24.0333L13.5637 24.57C12.292 25.3415 10.7977 25.7776 9.30349 25.8111C8.58816 25.8279 8 25.895 8 25.9453C8 26.113 9.93934 27.0522 11.068 27.4212C14.4539 28.5113 18.4756 28.0417 21.4959 26.1801C23.6419 24.8551 25.7879 22.222 26.7893 19.6728C27.3298 18.3143 27.8703 15.8321 27.8703 14.6413C27.8703 13.8698 27.918 13.7692 28.8081 12.8467C29.3327 12.3101 29.8255 11.7231 29.9209 11.5553C30.0798 11.2367 30.0639 11.2367 29.2532 11.5218C27.9021 12.0249 27.7113 11.9579 28.3789 11.2031C28.8717 10.6665 29.4599 9.69371 29.4599 9.40859C29.4599 9.35828 29.2214 9.44213 28.9512 9.59308C28.6651 9.76079 28.0292 10.0124 27.5523 10.1633L26.6939 10.4484L25.915 9.89497C25.4858 9.59308 24.8818 9.25765 24.5639 9.15702C23.7531 8.92222 22.5132 8.95576 21.782 9.2241C19.795 9.97882 18.5392 11.9243 18.6823 14.0543L18.7299 14.8761Z" fill="white"/>
</g>
</svg>
